<svg id="visual" viewBox="0 0 900 600" width="900" height="600" xmlns="http://www.w3.org/2000/svg" xmlns:xlink="http://www.w3.org/1999/xlink" version="1.1"><rect x="0" y="0" width="900" height="600" fill="#242323"></rect><path d="M0 410L129 369L257 388L386 410L514 375L643 429L771 370L900 393L900 601L771 601L643 601L514 601L386 601L257 601L129 601L0 601Z" fill="#4f4f4e"></path><path d="M0 400L129 432L257 444L386 418L514 422L643 401L771 447L900 413L900 601L771 601L643 601L514 601L386 601L257 601L129 601L0 601Z" fill="#585857"></path><path d="M0 506L129 460L257 483L386 483L514 504L643 492L771 456L900 479L900 601L771 601L643 601L514 601L386 601L257 601L129 601L0 601Z" fill="#626160"></path><path d="M0 512L129 490L257 527L386 489L514 489L643 499L771 535L900 513L900 601L771 601L643 601L514 601L386 601L257 601L129 601L0 601Z" fill="#6b6a69"></path><path d="M0 535L129 544L257 527L386 551L514 572L643 567L771 528L900 538L900 601L771 601L643 601L514 601L386 601L257 601L129 601L0 601Z" fill="#757473"></path></svg>